<svg version="1.1" id="Layer_1" xmlns="http://www.w3.org/2000/svg" xmlns:xlink="http://www.w3.org/1999/xlink" x="0px" y="0px"
	 width="100%" viewBox="0 0 225 225" enable-background="new 0 0 225 225" xml:space="preserve">
<path fill="#FFFEFE" opacity="1.000000" stroke="none" 
	d="
M150.000000,226.000000 
	C100.000000,226.000000 50.500008,226.000000 1.000007,226.000000 
	C1.000004,151.000000 1.000004,76.000015 1.000002,1.000017 
	C75.999992,1.000011 150.999985,1.000011 225.999969,1.000006 
	C225.999985,75.999985 225.999985,150.999969 226.000000,225.999969 
	C200.833328,226.000000 175.666672,226.000000 150.000000,226.000000 
M112.994171,121.610817 
	C112.994171,121.610817 113.039612,122.092873 112.956680,122.760460 
	C112.773621,123.736954 112.590561,124.713440 112.407501,125.689934 
	C114.555222,124.257149 115.671677,122.188004 117.342659,120.774315 
	C125.217949,114.111633 133.245193,107.628563 141.888046,100.945213 
	C146.820847,97.955917 151.753647,94.966621 157.428055,91.886086 
	C163.319366,89.429619 169.210663,86.973160 175.088654,84.522247 
	C166.237320,62.977882 139.928116,42.536091 106.728218,45.077946 
	C76.000282,47.430542 53.662067,70.419418 49.229008,86.995132 
	C61.734947,86.306587 73.320930,89.323608 84.728584,95.421616 
	C95.275780,101.404671 102.573868,110.478241 108.072937,121.263016 
	C108.429306,121.019135 108.785667,120.775261 109.142036,120.531380 
	C108.819710,119.360123 108.497383,118.188858 108.758270,117.087585 
	C109.443230,117.748466 110.128197,118.409340 110.890800,119.674736 
	C111.580231,120.159119 112.269653,120.643509 112.994171,121.610817 
M67.555016,97.495033 
	C79.519737,101.950432 90.483208,108.108276 100.084915,116.508575 
	C101.329941,109.770523 85.220665,98.800171 66.269241,93.856422 
	C59.452049,92.200035 52.700085,89.938637 44.848801,91.134369 
	C52.734898,93.241287 59.868156,95.147072 67.555016,97.495033 
M73.052147,108.655876 
	C79.501198,111.604317 85.950249,114.552757 92.399292,117.501198 
	C92.627808,117.095139 92.856323,116.689079 93.084839,116.283028 
	C87.747238,113.141716 82.409637,110.000404 76.642387,106.320122 
	C61.449894,98.537796 45.568775,93.371223 28.440794,93.033211 
	C32.598858,95.581230 36.625381,98.425850 41.103069,99.795479 
	C50.278610,102.602058 59.696194,104.617317 69.564896,107.299423 
	C70.378242,107.540436 71.191589,107.781448 72.229004,108.206528 
	C72.229004,108.206528 72.509033,108.131233 73.052147,108.655876 
M107.222733,140.838470 
	C78.100578,120.319107 46.486149,107.217354 8.940696,107.291061 
	C14.923534,114.155113 19.777861,120.051277 24.983290,125.619194 
	C32.596531,133.762619 36.546318,142.954346 34.367779,154.244095 
	C33.764858,157.368591 34.571911,158.650940 38.260361,159.373337 
	C60.050674,163.641129 81.755569,168.349274 103.464775,173.022720 
	C106.963692,173.775955 110.361992,176.009964 113.767570,175.928055 
	C118.069298,175.824631 122.320160,174.002625 126.611450,173.001160 
	C149.046219,167.765488 171.486847,162.554871 193.722153,157.382843 
	C196.178421,149.166473 197.720367,139.420761 201.977386,131.056992 
	C206.247238,122.668030 213.225021,115.657349 219.046921,108.001953 
	C215.598007,108.721748 211.798386,109.577835 207.973053,110.297165 
	C203.150726,111.203987 198.311768,112.025154 193.471878,112.834915 
	C189.030212,113.578041 184.537155,114.068329 180.141113,115.015259 
	C175.391220,116.038422 170.772827,117.678856 166.018082,118.671638 
	C148.857758,122.254692 133.177933,128.909271 119.179085,139.906982 
	C115.065315,137.042801 111.239700,136.951157 107.222733,140.838470 
M171.445496,101.862747 
	C176.303482,100.617142 181.814835,100.396957 185.834518,97.835709 
	C189.804382,95.306198 192.266190,90.409889 195.389557,86.551880 
	C195.114761,86.135818 194.839981,85.719765 194.565186,85.303703 
	C182.431946,89.720665 170.163315,93.803047 158.201630,98.643913 
	C144.891220,104.030609 132.227203,110.716591 122.183929,121.359680 
	C120.167404,123.496658 118.629440,126.085228 116.870819,128.465576 
	C117.221497,128.852646 117.572182,129.239716 117.922859,129.626770 
	C132.743256,115.019440 150.155655,105.524765 171.445496,101.862747 
M54.257427,110.030319 
	C64.892410,113.755478 75.527390,117.480629 85.753464,121.062561 
	C75.948532,110.824463 31.132488,100.333473 20.147078,104.215218 
	C30.261898,105.938965 41.854401,107.914543 54.257427,110.030319 
M154.846542,114.198875 
	C159.622223,112.573471 164.397903,110.948059 169.173584,109.322647 
	C168.968216,108.752213 168.762848,108.181770 168.557495,107.611336 
	C161.076920,110.077705 153.596344,112.544075 146.115768,115.010445 
	C146.291962,115.622086 146.468155,116.233719 146.644348,116.845360 
	C149.132721,116.052734 151.621078,115.260109 154.846542,114.198875 
M170.804047,107.454414 
	C170.804047,107.454414 171.245499,107.546860 171.245499,107.546860 
	C171.245499,107.546860 170.982483,107.513618 170.804047,107.454414 
z"/>
<path fill="#E25E26" opacity="1.000000" stroke="none" 
	d="
M119.745804,140.394531 
	C133.177933,128.909271 148.857758,122.254692 166.018082,118.671638 
	C170.772827,117.678856 175.391220,116.038422 180.141113,115.015259 
	C184.537155,114.068329 189.030212,113.578041 193.471878,112.834915 
	C198.311768,112.025154 203.150726,111.203987 207.973053,110.297165 
	C211.798386,109.577835 215.598007,108.721748 219.046921,108.001953 
	C213.225021,115.657349 206.247238,122.668030 201.977386,131.056992 
	C197.720367,139.420761 196.178421,149.166473 193.722153,157.382843 
	C171.486847,162.554871 149.046219,167.765488 126.611450,173.001160 
	C122.320160,174.002625 118.069298,175.824631 113.767570,175.928055 
	C110.361992,176.009964 106.963692,173.775955 103.464775,173.022720 
	C81.755569,168.349274 60.050674,163.641129 38.260361,159.373337 
	C34.571911,158.650940 33.764858,157.368591 34.367779,154.244095 
	C36.546318,142.954346 32.596531,133.762619 24.983290,125.619194 
	C19.777861,120.051277 14.923534,114.155113 8.940696,107.291061 
	C46.486149,107.217354 78.100578,120.319107 107.599075,141.376831 
	C109.780678,146.231171 113.417793,143.350021 116.130287,143.714920 
	C117.167793,143.854492 118.531013,141.572830 119.745804,140.394531 
M115.273682,155.000320 
	C116.269348,154.895065 117.265022,154.789825 118.260689,154.684570 
	C118.248138,154.479553 118.235596,154.274551 118.223045,154.069534 
	C115.402313,154.069534 112.581573,154.069534 109.760841,154.069534 
	C109.759132,154.380295 109.757431,154.691071 109.755730,155.001831 
	C111.317085,155.001831 112.878441,155.001831 115.273682,155.000320 
z"/>
<path fill="#6FCBCA" opacity="1.000000" stroke="none" 
	d="
M84.258682,94.987381 
	C73.320930,89.323608 61.734947,86.306587 49.229008,86.995132 
	C53.662067,70.419418 76.000282,47.430542 106.728218,45.077946 
	C139.928116,42.536091 166.237320,62.977882 175.088654,84.522247 
	C169.210663,86.973160 163.319366,89.429619 157.136841,91.549263 
	C157.896439,87.453773 158.947235,83.695114 160.001068,79.961250 
	C160.004105,79.986053 159.954361,79.977570 160.289917,80.115356 
	C160.730820,79.805702 160.836197,79.358253 161.118668,78.589340 
	C161.485748,77.216782 161.675735,76.165695 161.865738,75.114616 
	C157.132507,78.434288 153.987778,82.738686 149.950195,85.904327 
	C140.453796,93.349937 130.531052,100.251755 120.707825,106.932648 
	C120.488945,102.018616 119.937500,97.513397 120.289124,93.079796 
	C120.863419,85.838516 122.026283,78.643906 122.874496,71.188622 
	C122.808151,70.947632 122.941643,70.465858 123.043976,70.473953 
	C123.146301,70.482048 123.246796,70.511780 123.246796,70.511780 
	C123.246796,70.511780 122.940918,70.486282 122.861710,70.178467 
	C122.029388,70.061226 120.755508,70.057175 120.600731,70.471344 
	C117.991783,77.452568 114.979347,84.349808 113.175629,91.546204 
	C111.400612,98.628090 110.882782,106.025078 109.617912,114.610023 
	C106.695930,100.986107 100.116096,90.987991 90.937309,82.626442 
	C89.599640,81.407883 87.630211,80.882828 85.975609,80.018311 
	C85.998108,79.999748 85.975624,80.053535 86.003464,79.740990 
	C85.667175,79.296745 85.303040,79.165047 84.968414,79.019073 
	C84.997917,79.004807 84.972527,79.065231 84.957306,78.748215 
	C84.358528,78.288040 83.774986,78.144875 83.024910,77.681946 
	C79.741135,75.587402 76.623886,73.812630 72.933891,71.711761 
	C77.040428,80.151848 80.649551,87.569611 84.258682,94.987381 
z"/>
<path fill="#E35F25" opacity="1.000000" stroke="none" 
	d="
M171.025223,101.941559 
	C150.155655,105.524765 132.743256,115.019440 117.922859,129.626770 
	C117.572182,129.239716 117.221497,128.852646 116.870819,128.465576 
	C118.629440,126.085228 120.167404,123.496658 122.183929,121.359680 
	C132.227203,110.716591 144.891220,104.030609 158.201630,98.643913 
	C170.163315,93.803047 182.431946,89.720665 194.565186,85.303703 
	C194.839981,85.719765 195.114761,86.135818 195.389557,86.551880 
	C192.266190,90.409889 189.804382,95.306198 185.834518,97.835709 
	C181.814835,100.396957 176.303482,100.617142 171.025223,101.941559 
z"/>
<path fill="#E25E24" opacity="1.000000" stroke="none" 
	d="
M84.493637,95.204498 
	C80.649551,87.569611 77.040428,80.151848 72.933891,71.711761 
	C76.623886,73.812630 79.741135,75.587402 83.042168,77.996368 
	C83.808144,78.775452 84.390335,78.920341 84.972527,79.065231 
	C84.972527,79.065231 84.997917,79.004807 84.968613,79.314316 
	C85.284744,79.767059 85.630188,79.910301 85.975624,80.053535 
	C85.975624,80.053535 85.998108,79.999748 86.041313,80.350555 
	C92.155266,88.345261 98.669518,95.691101 104.097229,103.767166 
	C106.564972,107.439003 106.882294,112.556084 108.175056,117.017601 
	C108.497383,118.188858 108.819710,119.360123 109.142036,120.531380 
	C108.785667,120.775261 108.429306,121.019135 108.072937,121.263016 
	C102.573868,110.478241 95.275780,101.404671 84.493637,95.204498 
z"/>
<path fill="#E36128" opacity="1.000000" stroke="none" 
	d="
M69.014122,106.958389 
	C59.696194,104.617317 50.278610,102.602058 41.103069,99.795479 
	C36.625381,98.425850 32.598858,95.581230 28.440794,93.033211 
	C45.568775,93.371223 61.449894,98.537796 76.597168,106.900635 
	C75.204308,107.697845 73.856674,107.914543 72.509033,108.131233 
	C72.509033,108.131233 72.229004,108.206528 71.990891,107.839874 
	C70.839890,107.301605 69.927010,107.129997 69.014122,106.958389 
z"/>
<path fill="#F5F5F3" opacity="1.000000" stroke="none" 
	d="
M108.466660,117.052597 
	C106.882294,112.556084 106.564972,107.439003 104.097229,103.767166 
	C98.669518,95.691101 92.155266,88.345261 86.018814,80.369125 
	C87.630211,80.882828 89.599640,81.407883 90.937309,82.626442 
	C100.116096,90.987991 106.695930,100.986107 109.617912,114.610023 
	C110.882782,106.025078 111.400612,98.628090 113.175629,91.546204 
	C114.979347,84.349808 117.991783,77.452568 120.600731,70.471344 
	C120.755508,70.057175 122.029388,70.061226 122.875778,70.174500 
	C122.969063,70.478340 122.941643,70.465858 122.941643,70.465858 
	C122.941643,70.465858 122.808151,70.947632 122.529655,71.348907 
	C121.476189,73.147575 120.389282,74.459145 119.977425,75.956406 
	C117.503609,84.949783 115.184830,93.985802 112.673508,103.093414 
	C112.309036,103.491249 112.368279,103.757439 112.750092,104.373520 
	C112.480247,107.175095 112.170921,109.581001 111.603783,112.283745 
	C111.168358,114.743797 110.990753,116.907005 110.813156,119.070221 
	C110.128197,118.409340 109.443230,117.748466 108.466660,117.052597 
z"/>
<path fill="#E45F1F" opacity="1.000000" stroke="none" 
	d="
M53.852165,109.960220 
	C41.854401,107.914543 30.261898,105.938965 20.147078,104.215218 
	C31.132488,100.333473 75.948532,110.824463 85.753464,121.062561 
	C75.527390,117.480629 64.892410,113.755478 53.852165,109.960220 
z"/>
<path fill="#E46229" opacity="1.000000" stroke="none" 
	d="
M66.997719,94.096138 
	C85.220665,98.800171 101.329941,109.770523 100.084915,116.508575 
	C90.483208,108.108276 79.519737,101.950432 67.279709,96.904327 
	C67.002182,95.574455 66.999947,94.835297 66.997719,94.096138 
z"/>
<path fill="#E25F25" opacity="1.000000" stroke="none" 
	d="
M159.998047,79.936447 
	C158.947235,83.695114 157.896439,87.453773 156.766037,91.594879 
	C151.753647,94.966621 146.820847,97.955917 141.198425,100.959373 
	C139.971893,100.551048 139.434998,100.128555 139.068253,99.428505 
	C146.158295,92.746109 153.078171,86.341278 159.998047,79.936447 
z"/>
<path fill="#E36023" opacity="1.000000" stroke="none" 
	d="
M138.898102,99.706070 
	C139.434998,100.128555 139.971893,100.551048 140.863510,101.027481 
	C133.245193,107.628563 125.217949,114.111633 117.342659,120.774315 
	C115.671677,122.188004 114.555222,124.257149 112.407501,125.689934 
	C112.590561,124.713440 112.773621,123.736954 113.259224,122.231415 
	C113.864548,120.932465 114.167320,120.162567 114.489128,119.353531 
	C114.508156,119.314400 114.595108,119.310570 114.857254,119.174004 
	C123.045639,112.593651 130.971878,106.149864 138.898102,99.706070 
z"/>
<path fill="#E46124" opacity="1.000000" stroke="none" 
	d="
M66.633484,93.976280 
	C66.999947,94.835297 67.002182,95.574455 67.002914,96.683235 
	C59.868156,95.147072 52.734898,93.241287 44.848801,91.134369 
	C52.700085,89.938637 59.452049,92.200035 66.633484,93.976280 
z"/>
<path fill="#79C5C1" opacity="1.000000" stroke="none" 
	d="
M119.462448,140.150757 
	C118.531013,141.572830 117.167793,143.854492 116.130287,143.714920 
	C113.417793,143.350021 109.780678,146.231171 107.914276,141.499634 
	C111.239700,136.951157 115.065315,137.042801 119.462448,140.150757 
z"/>
<path fill="#E46426" opacity="1.000000" stroke="none" 
	d="
M154.477997,114.333176 
	C151.621078,115.260109 149.132721,116.052734 146.644348,116.845360 
	C146.468155,116.233719 146.291962,115.622086 146.115768,115.010445 
	C153.596344,112.544075 161.076920,110.077705 168.557495,107.611336 
	C168.762848,108.181770 168.968216,108.752213 169.173584,109.322647 
	C164.397903,110.948059 159.622223,112.573471 154.477997,114.333176 
z"/>
<path fill="#E46226" opacity="1.000000" stroke="none" 
	d="
M72.780594,108.393555 
	C73.856674,107.914543 75.204308,107.697845 76.811996,107.170120 
	C82.409637,110.000404 87.747238,113.141716 93.084839,116.283028 
	C92.856323,116.689079 92.627808,117.095139 92.399292,117.501198 
	C85.950249,114.552757 79.501198,111.604317 72.780594,108.393555 
z"/>
<path fill="#F5EAE5" opacity="1.000000" stroke="none" 
	d="
M110.851974,119.372482 
	C110.990753,116.907005 111.168358,114.743797 111.654968,112.661560 
	C112.634232,114.141136 113.304489,115.539742 114.005722,117.350739 
	C114.222832,118.278954 114.408966,118.794762 114.595108,119.310570 
	C114.595108,119.310570 114.508156,119.314400 114.145370,119.339737 
	C113.508087,119.952675 113.233582,120.540283 112.959076,121.127899 
	C112.269653,120.643509 111.580231,120.159119 110.851974,119.372482 
z"/>
<path fill="#E46226" opacity="1.000000" stroke="none" 
	d="
M69.289505,107.128906 
	C69.927010,107.129997 70.839890,107.301605 71.878860,107.747833 
	C71.191589,107.781448 70.378242,107.540436 69.289505,107.128906 
z"/>
<path fill="#FAF7F5" opacity="1.000000" stroke="none" 
	d="
M112.976624,121.369354 
	C113.233582,120.540283 113.508087,119.952675 114.126343,119.378868 
	C114.167320,120.162567 113.864548,120.932465 113.300690,121.897614 
	C113.039612,122.092873 112.994171,121.610817 112.976624,121.369354 
z"/>
<path fill="#E46426" opacity="1.000000" stroke="none" 
	d="
M170.893265,107.484016 
	C170.982483,107.513618 171.245499,107.546860 171.245499,107.546860 
	C171.245499,107.546860 170.804047,107.454414 170.893265,107.484016 
z"/>
<path fill="#9AAC9E" opacity="1.000000" stroke="none" 
	d="
M114.856735,155.001068 
	C112.878441,155.001831 111.317085,155.001831 109.755730,155.001831 
	C109.757431,154.691071 109.759132,154.380295 109.760841,154.069534 
	C112.581573,154.069534 115.402313,154.069534 118.223045,154.069534 
	C118.235596,154.274551 118.248138,154.479553 118.260689,154.684570 
	C117.265022,154.789825 116.269348,154.895065 114.856735,155.001068 
z"/>
<path fill="#D45C33" opacity="1.000000" stroke="none" 
	d="
M113.974747,116.938347 
	C113.304489,115.539742 112.634232,114.141136 111.912788,112.364716 
	C112.170921,109.581001 112.480247,107.175095 112.827240,104.136414 
	C112.864914,103.503647 112.814110,103.007530 112.814117,103.007530 
	C115.184830,93.985802 117.503609,84.949783 119.977425,75.956406 
	C120.389282,74.459145 121.476189,73.147575 122.596008,71.589905 
	C122.026283,78.643906 120.863419,85.838516 120.289124,93.079796 
	C119.937500,97.513397 120.488945,102.018616 120.542038,107.171974 
	C118.291077,110.880966 116.132912,113.909653 113.974747,116.938347 
z"/>
<path fill="#FAF7F5" opacity="1.000000" stroke="none" 
	d="
M114.005722,117.350739 
	C116.132912,113.909653 118.291077,110.880966 120.615036,107.612946 
	C130.531052,100.251755 140.453796,93.349937 149.950195,85.904327 
	C153.987778,82.738686 157.132507,78.434288 161.865738,75.114616 
	C161.675735,76.165695 161.485748,77.216782 160.828278,78.653244 
	C160.225327,79.351608 160.089844,79.664589 159.954361,79.977570 
	C159.954361,79.977570 160.004105,79.986053 160.001068,79.961250 
	C153.078171,86.341278 146.158295,92.746109 139.068253,99.428513 
	C130.971878,106.149864 123.045639,112.593651 114.857254,119.174004 
	C114.408966,118.794762 114.222832,118.278954 114.005722,117.350739 
z"/>
<path fill="#F5F5F3" opacity="1.000000" stroke="none" 
	d="
M84.957306,78.748215 
	C84.390335,78.920341 83.808144,78.775452 83.208694,78.316132 
	C83.774986,78.144875 84.358528,78.288040 84.957306,78.748215 
z"/>
<path fill="#E25F25" opacity="1.000000" stroke="none" 
	d="
M160.289917,80.115356 
	C160.089844,79.664589 160.225327,79.351608 160.651184,78.974716 
	C160.836197,79.358253 160.730820,79.805702 160.289917,80.115356 
z"/>
<path fill="#F5F5F3" opacity="1.000000" stroke="none" 
	d="
M86.003464,79.740990 
	C85.630188,79.910301 85.284744,79.767059 84.939102,79.328583 
	C85.303040,79.165047 85.667175,79.296745 86.003464,79.740990 
z"/>
<path fill="#F5EAE5" opacity="1.000000" stroke="none" 
	d="
M123.043976,70.473953 
	C122.941643,70.465858 122.969063,70.478340 122.954987,70.482315 
	C122.940918,70.486282 123.246796,70.511780 123.246796,70.511780 
	C123.246796,70.511780 123.146301,70.482048 123.043976,70.473953 
z"/>
<path fill="#F5EAE5" opacity="1.000000" stroke="none" 
	d="
M112.673508,103.093414 
	C112.814110,103.007530 112.864914,103.503647 112.787766,103.740753 
	C112.368279,103.757439 112.309036,103.491249 112.673508,103.093414 
z"/>
</svg>